<svg version="1.1" xmlns="http://www.w3.org/2000/svg" xmlns:xlink="http://www.w3.org/1999/xlink" width="655" height="431"><defs><clipPath id="kyoaeBMtlIrl"><path fill="none" stroke="none" d=" M 0 0 L 655 0 L 655 431 L 0 431 L 0 0 Z"/></clipPath></defs><g transform="scale(1,1)" clip-path="url(#kyoaeBMtlIrl)"><g><rect fill="rgb(255,255,255)" stroke="none" x="0" y="0" width="655" height="431" fill-opacity="1"/><path fill="none" stroke="rgb(180,179,186)" paint-order="fill stroke markers" d=" M 39.5 0.5 L 39.5 431.5 M 39.5 0.5 L 39.5 431.5 M 92.5 0.5 L 92.5 431.5 M 145.5 0.5 L 145.5 431.5 M 252.5 0.5 L 252.5 431.5 M 305.5 0.5 L 305.5 431.5 M 358.5 0.5 L 358.5 431.5 M 411.5 0.5 L 411.5 431.5 M 464.5 0.5 L 464.5 431.5 M 517.5 0.5 L 517.5 431.5 M 570.5 0.5 L 570.5 431.5 M 623.5 0.5 L 623.5 431.5" stroke-opacity="1" stroke-linecap="round" stroke-linejoin="round" stroke-miterlimit="10"/><path fill="none" stroke="rgb(180,179,186)" paint-order="fill stroke markers" d="" stroke-opacity="0.23529411764705882" stroke-linecap="round" stroke-linejoin="round" stroke-miterlimit="10"/><path fill="none" stroke="rgb(180,179,186)" paint-order="fill stroke markers" d=" M 0.5 6.5 L 655.5 6.5 M 0.5 6.5 L 655.5 6.5 M 0.5 59.5 L 655.5 59.5 M 0.5 112.5 L 655.5 112.5 M 0.5 218.5 L 655.5 218.5 M 0.5 271.5 L 655.5 271.5 M 0.5 324.5 L 655.5 324.5 M 0.5 377.5 L 655.5 377.5 M 0.5 430.5 L 655.5 430.5" stroke-opacity="1" stroke-linecap="round" stroke-linejoin="round" stroke-miterlimit="10"/><path fill="none" stroke="rgb(180,179,186)" paint-order="fill stroke markers" d="" stroke-opacity="0.23529411764705882" stroke-linecap="round" stroke-linejoin="round" stroke-miterlimit="10"/><path fill="none" stroke="rgb(28,28,31)" paint-order="fill stroke markers" d=" M 198.5 2.5 L 198.5 431.5" stroke-opacity="1" stroke-miterlimit="10"/><path fill="none" stroke="rgb(28,28,31)" paint-order="fill stroke markers" d=" M 198.5 1.5 L 194.5 5.5" stroke-opacity="1" stroke-miterlimit="10"/><path fill="none" stroke="rgb(28,28,31)" paint-order="fill stroke markers" d=" M 198.5 1.5 L 202.5 5.5" stroke-opacity="1" stroke-miterlimit="10"/><path fill="none" stroke="rgb(28,28,31)" paint-order="fill stroke markers" d=" M 0.5 165.5 L 653.5 165.5" stroke-opacity="1" stroke-miterlimit="10"/><path fill="none" stroke="rgb(28,28,31)" paint-order="fill stroke markers" d=" M 654.5 165.5 L 650.5 161.5" stroke-opacity="1" stroke-miterlimit="10"/><path fill="none" stroke="rgb(28,28,31)" paint-order="fill stroke markers" d=" M 654.5 165.5 L 650.5 169.5" stroke-opacity="1" stroke-miterlimit="10"/><text fill="rgb(28,28,31)" stroke="none" font-family="geogebra-sans-serif, sans-serif" font-size="12px" font-style="normal" font-weight="normal" text-decoration="normal" x="34" y="181" text-anchor="start" dominant-baseline="alphabetic" fill-opacity="1">–3</text><text fill="rgb(28,28,31)" stroke="none" font-family="geogebra-sans-serif, sans-serif" font-size="12px" font-style="normal" font-weight="normal" text-decoration="normal" x="87" y="181" text-anchor="start" dominant-baseline="alphabetic" fill-opacity="1">–2</text><text fill="rgb(28,28,31)" stroke="none" font-family="geogebra-sans-serif, sans-serif" font-size="12px" font-style="normal" font-weight="normal" text-decoration="normal" x="140" y="181" text-anchor="start" dominant-baseline="alphabetic" fill-opacity="1">–1</text><text fill="rgb(28,28,31)" stroke="none" font-family="geogebra-sans-serif, sans-serif" font-size="12px" font-style="normal" font-weight="normal" text-decoration="normal" x="250" y="181" text-anchor="start" dominant-baseline="alphabetic" fill-opacity="1">1</text><text fill="rgb(28,28,31)" stroke="none" font-family="geogebra-sans-serif, sans-serif" font-size="12px" font-style="normal" font-weight="normal" text-decoration="normal" x="303" y="181" text-anchor="start" dominant-baseline="alphabetic" fill-opacity="1">2</text><text fill="rgb(28,28,31)" stroke="none" font-family="geogebra-sans-serif, sans-serif" font-size="12px" font-style="normal" font-weight="normal" text-decoration="normal" x="356" y="181" text-anchor="start" dominant-baseline="alphabetic" fill-opacity="1">3</text><text fill="rgb(28,28,31)" stroke="none" font-family="geogebra-sans-serif, sans-serif" font-size="12px" font-style="normal" font-weight="normal" text-decoration="normal" x="409" y="181" text-anchor="start" dominant-baseline="alphabetic" fill-opacity="1">4</text><text fill="rgb(28,28,31)" stroke="none" font-family="geogebra-sans-serif, sans-serif" font-size="12px" font-style="normal" font-weight="normal" text-decoration="normal" x="462" y="181" text-anchor="start" dominant-baseline="alphabetic" fill-opacity="1">5</text><text fill="rgb(28,28,31)" stroke="none" font-family="geogebra-sans-serif, sans-serif" font-size="12px" font-style="normal" font-weight="normal" text-decoration="normal" x="515" y="181" text-anchor="start" dominant-baseline="alphabetic" fill-opacity="1">6</text><text fill="rgb(28,28,31)" stroke="none" font-family="geogebra-sans-serif, sans-serif" font-size="12px" font-style="normal" font-weight="normal" text-decoration="normal" x="568" y="181" text-anchor="start" dominant-baseline="alphabetic" fill-opacity="1">7</text><text fill="rgb(28,28,31)" stroke="none" font-family="geogebra-sans-serif, sans-serif" font-size="12px" font-style="normal" font-weight="normal" text-decoration="normal" x="621" y="181" text-anchor="start" dominant-baseline="alphabetic" fill-opacity="1">8</text><text fill="rgb(28,28,31)" stroke="none" font-family="geogebra-sans-serif, sans-serif" font-size="12px" font-style="normal" font-weight="normal" text-decoration="normal" x="178" y="382" text-anchor="start" dominant-baseline="alphabetic" fill-opacity="1">–4</text><text fill="rgb(28,28,31)" stroke="none" font-family="geogebra-sans-serif, sans-serif" font-size="12px" font-style="normal" font-weight="normal" text-decoration="normal" x="178" y="329" text-anchor="start" dominant-baseline="alphabetic" fill-opacity="1">–3</text><text fill="rgb(28,28,31)" stroke="none" font-family="geogebra-sans-serif, sans-serif" font-size="12px" font-style="normal" font-weight="normal" text-decoration="normal" x="178" y="276" text-anchor="start" dominant-baseline="alphabetic" fill-opacity="1">–2</text><text fill="rgb(28,28,31)" stroke="none" font-family="geogebra-sans-serif, sans-serif" font-size="12px" font-style="normal" font-weight="normal" text-decoration="normal" x="178" y="223" text-anchor="start" dominant-baseline="alphabetic" fill-opacity="1">–1</text><text fill="rgb(28,28,31)" stroke="none" font-family="geogebra-sans-serif, sans-serif" font-size="12px" font-style="normal" font-weight="normal" text-decoration="normal" x="184" y="117" text-anchor="start" dominant-baseline="alphabetic" fill-opacity="1">1</text><text fill="rgb(28,28,31)" stroke="none" font-family="geogebra-sans-serif, sans-serif" font-size="12px" font-style="normal" font-weight="normal" text-decoration="normal" x="184" y="64" text-anchor="start" dominant-baseline="alphabetic" fill-opacity="1">2</text><text fill="rgb(28,28,31)" stroke="none" font-family="geogebra-sans-serif, sans-serif" font-size="12px" font-style="normal" font-weight="normal" text-decoration="normal" x="184" y="181" text-anchor="start" dominant-baseline="alphabetic" fill-opacity="1">0</text><path fill="none" stroke="rgb(0,103,88)" paint-order="fill stroke markers" d=" M 145.9714953508358 589.2241423866012 C 252.00404305755887 -46.97114385373865 358.036590764282 -46.97114385373865 464.0691384710051 589.2241423866012" stroke-opacity="0.8" stroke-linecap="round" stroke-linejoin="round" stroke-miterlimit="10" stroke-width="2.5"/><text fill="rgb(0,103,88)" stroke="none" font-family="geogebra-sans-serif, sans-serif" font-size="16px" font-style="normal" font-weight="normal" text-decoration="normal" x="272" y="165" text-anchor="start" dominant-baseline="alphabetic" fill-opacity="1">f</text><path fill="rgb(21,101,192)" stroke="none" paint-order="stroke fill markers" d=" M 310.0203169109204 112.07767770634632 C 310.0203169109204 114.83910145550028 307.7817406600744 117.07767770634632 305.0203169109204 117.07767770634632 C 302.2588931617665 117.07767770634632 300.0203169109204 114.83910145550028 300.0203169109204 112.07767770634632 C 300.0203169109204 109.31625395719236 302.2588931617665 107.07767770634632 305.0203169109204 107.07767770634632 C 307.7817406600744 107.07767770634632 310.0203169109204 109.31625395719236 310.0203169109204 112.07767770634632 Z" fill-opacity="1"/><path fill="none" stroke="rgb(0,0,0)" paint-order="fill stroke markers" d=" M 310.0203169109204 112.07767770634632 C 310.0203169109204 114.83910145550028 307.7817406600744 117.07767770634632 305.0203169109204 117.07767770634632 C 302.2588931617665 117.07767770634632 300.0203169109204 114.83910145550028 300.0203169109204 112.07767770634632 C 300.0203169109204 109.31625395719236 302.2588931617665 107.07767770634632 305.0203169109204 107.07767770634632 C 307.7817406600744 107.07767770634632 310.0203169109204 109.31625395719236 310.0203169109204 112.07767770634632 Z" stroke-opacity="1" stroke-linecap="round" stroke-linejoin="round" stroke-miterlimit="10"/><text fill="rgb(21,101,192)" stroke="none" font-family="geogebra-sans-serif, sans-serif" font-size="16px" font-style="normal" font-weight="normal" text-decoration="normal" x="309" y="102" text-anchor="start" dominant-baseline="alphabetic" fill-opacity="1">V = (2, 1)</text><path fill="rgb(21,101,192)" stroke="none" paint-order="stroke fill markers" d=" M 257.0040430575589 165.093951559708 C 257.0040430575589 167.85537530886197 254.76546680671288 170.093951559708 252.0040430575589 170.093951559708 C 249.24261930840493 170.093951559708 247.0040430575589 167.85537530886197 247.0040430575589 165.093951559708 C 247.0040430575589 162.332527810554 249.24261930840493 160.093951559708 252.0040430575589 160.093951559708 C 254.76546680671288 160.093951559708 257.0040430575589 162.332527810554 257.0040430575589 165.093951559708 Z" fill-opacity="1"/><path fill="none" stroke="rgb(0,0,0)" paint-order="fill stroke markers" d=" M 257.0040430575589 165.093951559708 C 257.0040430575589 167.85537530886197 254.76546680671288 170.093951559708 252.0040430575589 170.093951559708 C 249.24261930840493 170.093951559708 247.0040430575589 167.85537530886197 247.0040430575589 165.093951559708 C 247.0040430575589 162.332527810554 249.24261930840493 160.093951559708 252.0040430575589 160.093951559708 C 254.76546680671288 160.093951559708 257.0040430575589 162.332527810554 257.0040430575589 165.093951559708 Z" stroke-opacity="1" stroke-linecap="round" stroke-linejoin="round" stroke-miterlimit="10"/><text fill="rgb(21,101,192)" stroke="none" font-family="geogebra-sans-serif, sans-serif" font-size="16px" font-style="normal" font-weight="normal" text-decoration="normal" x="256" y="155" text-anchor="start" dominant-baseline="alphabetic" fill-opacity="1">Px</text><text fill="rgb(21,101,192)" stroke="none" font-family="geogebra-sans-serif, sans-serif" font-size="14px" font-style="normal" font-weight="normal" text-decoration="normal" x="275" y="162" text-anchor="start" dominant-baseline="alphabetic" fill-opacity="1">1</text><text fill="rgb(21,101,192)" stroke="none" font-family="geogebra-sans-serif, sans-serif" font-size="16px" font-style="normal" font-weight="normal" text-decoration="normal" x="283" y="155" text-anchor="start" dominant-baseline="alphabetic" fill-opacity="1"> = (1, 0)</text><path fill="rgb(21,101,192)" stroke="none" paint-order="stroke fill markers" d=" M 363.036590764282 165.093951559708 C 363.036590764282 167.85537530886197 360.79801451343593 170.093951559708 358.036590764282 170.093951559708 C 355.27516701512803 170.093951559708 353.036590764282 167.85537530886197 353.036590764282 165.093951559708 C 353.036590764282 162.332527810554 355.27516701512803 160.093951559708 358.036590764282 160.093951559708 C 360.79801451343593 160.093951559708 363.036590764282 162.332527810554 363.036590764282 165.093951559708 Z" fill-opacity="1"/><path fill="none" stroke="rgb(0,0,0)" paint-order="fill stroke markers" d=" M 363.036590764282 165.093951559708 C 363.036590764282 167.85537530886197 360.79801451343593 170.093951559708 358.036590764282 170.093951559708 C 355.27516701512803 170.093951559708 353.036590764282 167.85537530886197 353.036590764282 165.093951559708 C 353.036590764282 162.332527810554 355.27516701512803 160.093951559708 358.036590764282 160.093951559708 C 360.79801451343593 160.093951559708 363.036590764282 162.332527810554 363.036590764282 165.093951559708 Z" stroke-opacity="1" stroke-linecap="round" stroke-linejoin="round" stroke-miterlimit="10"/><text fill="rgb(21,101,192)" stroke="none" font-family="geogebra-sans-serif, sans-serif" font-size="16px" font-style="normal" font-weight="normal" text-decoration="normal" x="362" y="155" text-anchor="start" dominant-baseline="alphabetic" fill-opacity="1">Px</text><text fill="rgb(21,101,192)" stroke="none" font-family="geogebra-sans-serif, sans-serif" font-size="14px" font-style="normal" font-weight="normal" text-decoration="normal" x="381" y="162" text-anchor="start" dominant-baseline="alphabetic" fill-opacity="1">2</text><text fill="rgb(21,101,192)" stroke="none" font-family="geogebra-sans-serif, sans-serif" font-size="16px" font-style="normal" font-weight="normal" text-decoration="normal" x="389" y="155" text-anchor="start" dominant-baseline="alphabetic" fill-opacity="1"> = (3, 0)</text><path fill="rgb(21,101,192)" stroke="none" paint-order="stroke fill markers" d=" M 203.98776920419735 324.142773119793 C 203.98776920419735 326.90419686894694 201.74919295335133 329.142773119793 198.98776920419735 329.142773119793 C 196.22634545504337 329.142773119793 193.98776920419735 326.90419686894694 193.98776920419735 324.142773119793 C 193.98776920419735 321.38134937063904 196.22634545504337 319.142773119793 198.98776920419735 319.142773119793 C 201.74919295335133 319.142773119793 203.98776920419735 321.38134937063904 203.98776920419735 324.142773119793 Z" fill-opacity="1"/><path fill="none" stroke="rgb(0,0,0)" paint-order="fill stroke markers" d=" M 203.98776920419735 324.142773119793 C 203.98776920419735 326.90419686894694 201.74919295335133 329.142773119793 198.98776920419735 329.142773119793 C 196.22634545504337 329.142773119793 193.98776920419735 326.90419686894694 193.98776920419735 324.142773119793 C 193.98776920419735 321.38134937063904 196.22634545504337 319.142773119793 198.98776920419735 319.142773119793 C 201.74919295335133 319.142773119793 203.98776920419735 321.38134937063904 203.98776920419735 324.142773119793 Z" stroke-opacity="1" stroke-linecap="round" stroke-linejoin="round" stroke-miterlimit="10"/><text fill="rgb(21,101,192)" stroke="none" font-family="geogebra-sans-serif, sans-serif" font-size="16px" font-style="normal" font-weight="normal" text-decoration="normal" x="203" y="314" text-anchor="start" dominant-baseline="alphabetic" fill-opacity="1">Py = (0, -3)</text></g></g></svg>