<?xml version="1.0" encoding="UTF-8"?>
<svg id="Layer_1" xmlns="http://www.w3.org/2000/svg" version="1.1" viewBox="0 0 800 800">
  <!-- Generator: Adobe Illustrator 30.3.0, SVG Export Plug-In . SVG Version: 2.1.3 Build 182)  -->
  <defs>
    <style>
      .st0 {
        stroke: #fa7e19;
      }

      .st0, .st1 {
        stroke-width: 5px;
      }

      .st0, .st1, .st2 {
        fill: none;
        stroke-linecap: round;
        stroke-linejoin: round;
      }

      .st1 {
        stroke: #6042a6;
      }

      .st3, .st4, .st2, .st5 {
        font-family: ArialMT, Arial;
        font-size: 60.8px;
        isolation: isolate;
      }

      .st3, .st6 {
        fill: #6042a6;
      }

      .st4 {
        fill: #fa7e19;
      }

      .st7 {
        fill: #fff;
      }

      .st2 {
        stroke: #fff;
        stroke-width: 6px;
      }

      .st5, .st8 {
        fill: #348543;
      }
    </style>
  </defs>
  <g id="background-6eaae8fc">
    <rect class="st7" x="-250" y="-250" width="1300" height="1300"/>
  </g>
  <g id="graphpaper-6eaae8fc">
    <g id="axis-6eaae8fc">
      <path class="st7" d="M-250-250"/>
    </g>
  </g>
  <g id="expressions-6eaae8fc">
    <g id="sketch-6eaae8fc">
      <path class="st7" d="M-250-250"/>
      <path class="st1" d="M660,400c0,143.6-116.4,260-260,260-143.6,0-260-116.4-260-260,0-143.6,116.4-260,260-260,143.5,0,259.8,116.3,260,259.8"/>
    </g>
    <g id="sketch-6eaae8fc1" data-name="sketch-6eaae8fc">
      <path class="st1" d="M-250-250"/>
      <path class="st0" d="M400,400h260"/>
    </g>
  </g>
  <g id="labels-6eaae8fc">
    <g>
      <text class="st2" transform="translate(520.3 366.6)"><tspan x="0" y="0">r</tspan></text>
      <text class="st4" transform="translate(520.3 366.6)"><tspan x="0" y="0">r</tspan></text>
    </g>
    <g>
      <text class="st2" transform="translate(718.5 418.6)"><tspan x="0" y="0">X</tspan></text>
      <text class="st3" transform="translate(718.5 418.6)"><tspan x="0" y="0">X</tspan></text>
    </g>
    <g>
      <text class="st2" transform="translate(302.5 418.6)"><tspan x="0" y="0">S</tspan></text>
      <text class="st5" transform="translate(302.5 418.6)"><tspan x="0" y="0">S</tspan></text>
    </g>
  </g>
  <path class="st6" d="M673,400c0,7.2-5.8,13-13,13-7.2,0-13-5.8-13-13s5.8-13,13-13c7.2,0,13,5.8,13,13h0Z"/>
  <path class="st8" d="M413,400c0,7.2-5.8,13-13,13s-13-5.8-13-13,5.8-13,13-13c7.2,0,13,5.8,13,13h0Z"/>
</svg>