<svg version="1.1" xmlns="http://www.w3.org/2000/svg" xmlns:xlink="http://www.w3.org/1999/xlink" width="800" height="800"><defs/><g transform="scale(2,2)"><g id="background-3adb9cee"><rect fill="white" stroke="none" x="0" y="0" width="400" height="400" class="dcg-svg-background"/></g><g id="graphpaper-3adb9cee"><g id="axis-3adb9cee"><g id="yaxis-3adb9cee"><title>Y axis</title><g><path fill="none" stroke="rgb(0,0,0)" class="dcg-svg-axis-line" paint-order="fill stroke markers" d=" M 200 0 L 200 400" stroke-opacity="0.9" stroke-miterlimit="10" stroke-width="2" stroke-dasharray=""/></g></g><g id="xaxis-3adb9cee"><title>X axis</title><g><path fill="none" stroke="rgb(0,0,0)" class="dcg-svg-axis-line" paint-order="fill stroke markers" d=" M 0 200 L 400 200" stroke-opacity="0.9" stroke-miterlimit="10" stroke-width="2" stroke-dasharray=""/></g></g><g><g class="dcg-svg-axis-value"><text fill="none" stroke="#ffffff" font-family="Arial" font-size="17px" font-style="normal" font-weight="normal" text-decoration="normal" x="190.272705078125" y="218.124" text-anchor="middle" stroke-miterlimit="2" stroke-width="3" stroke-dasharray="">0</text><text fill="#000000" stroke="none" font-family="Arial" font-size="17px" font-style="normal" font-weight="normal" text-decoration="normal" x="190.272705078125" y="218.124" text-anchor="middle">0</text></g><g><path fill="none" stroke="rgb(0,0,0)" class="dcg-svg-tickmark" paint-order="fill stroke markers" d=" M 0 196 L 0 204 M 100 196 L 100 204 M 300 196 L 300 204 M 400 196 L 400 204 M 196 400 L 204 400 M 196 300 L 204 300 M 196 100 L 204 100 M 196 0 L 204 0" stroke-opacity="0.9" stroke-miterlimit="2" stroke-width="2" stroke-dasharray=""/></g><g class="dcg-svg-axis-value dcg-svg-offcenter-axis-value"><text fill="none" stroke="#ffffff" font-family="Arial" font-size="17px" font-style="normal" font-weight="normal" text-decoration="normal" x="15.28515625" y="218.124" text-anchor="middle" stroke-miterlimit="2" stroke-width="3" stroke-dasharray="">-20</text><text fill="#000000" stroke="none" font-family="Arial" font-size="17px" font-style="normal" font-weight="normal" text-decoration="normal" x="15.28515625" y="218.124" text-anchor="middle">-20</text></g><g class="dcg-svg-axis-value"><text fill="none" stroke="#ffffff" font-family="Arial" font-size="17px" font-style="normal" font-weight="normal" text-decoration="normal" x="97.16943359375" y="218.124" text-anchor="middle" stroke-miterlimit="2" stroke-width="3" stroke-dasharray="">-10</text><text fill="#000000" stroke="none" font-family="Arial" font-size="17px" font-style="normal" font-weight="normal" text-decoration="normal" x="97.16943359375" y="218.124" text-anchor="middle">-10</text></g><g class="dcg-svg-axis-value"><text fill="none" stroke="#ffffff" font-family="Arial" font-size="17px" font-style="normal" font-weight="normal" text-decoration="normal" x="300" y="218.124" text-anchor="middle" stroke-miterlimit="2" stroke-width="3" stroke-dasharray="">10</text><text fill="#000000" stroke="none" font-family="Arial" font-size="17px" font-style="normal" font-weight="normal" text-decoration="normal" x="300" y="218.124" text-anchor="middle">10</text></g><g class="dcg-svg-axis-value dcg-svg-offcenter-axis-value"><text fill="none" stroke="#ffffff" font-family="Arial" font-size="17px" font-style="normal" font-weight="normal" text-decoration="normal" x="387.54541015625" y="218.124" text-anchor="middle" stroke-miterlimit="2" stroke-width="3" stroke-dasharray="">20</text><text fill="#000000" stroke="none" font-family="Arial" font-size="17px" font-style="normal" font-weight="normal" text-decoration="normal" x="387.54541015625" y="218.124" text-anchor="middle">20</text></g><g class="dcg-svg-axis-value dcg-svg-offcenter-axis-value"><text fill="none" stroke="#ffffff" font-family="Arial" font-size="17px" font-style="normal" font-weight="normal" text-decoration="normal" x="182.71484375" y="393.124" text-anchor="middle" stroke-miterlimit="2" stroke-width="3" stroke-dasharray="">-20</text><text fill="#000000" stroke="none" font-family="Arial" font-size="17px" font-style="normal" font-weight="normal" text-decoration="normal" x="182.71484375" y="393.124" text-anchor="middle">-20</text></g><g class="dcg-svg-axis-value"><text fill="none" stroke="#ffffff" font-family="Arial" font-size="17px" font-style="normal" font-weight="normal" text-decoration="normal" x="182.71484375" y="304.624" text-anchor="middle" stroke-miterlimit="2" stroke-width="3" stroke-dasharray="">-10</text><text fill="#000000" stroke="none" font-family="Arial" font-size="17px" font-style="normal" font-weight="normal" text-decoration="normal" x="182.71484375" y="304.624" text-anchor="middle">-10</text></g><g class="dcg-svg-axis-value"><text fill="none" stroke="#ffffff" font-family="Arial" font-size="17px" font-style="normal" font-weight="normal" text-decoration="normal" x="185.54541015625" y="104.624" text-anchor="middle" stroke-miterlimit="2" stroke-width="3" stroke-dasharray="">10</text><text fill="#000000" stroke="none" font-family="Arial" font-size="17px" font-style="normal" font-weight="normal" text-decoration="normal" x="185.54541015625" y="104.624" text-anchor="middle">10</text></g><g class="dcg-svg-axis-value dcg-svg-offcenter-axis-value"><text fill="none" stroke="#ffffff" font-family="Arial" font-size="17px" font-style="normal" font-weight="normal" text-decoration="normal" x="185.54541015625" y="16.124000000000002" text-anchor="middle" stroke-miterlimit="2" stroke-width="3" stroke-dasharray="">20</text><text fill="#000000" stroke="none" font-family="Arial" font-size="17px" font-style="normal" font-weight="normal" text-decoration="normal" x="185.54541015625" y="16.124000000000002" text-anchor="middle">20</text></g></g></g></g><g id="expressions-3adb9cee"><g id="sketch-3adb9cee"><title>Expression 1</title><path fill="#c74440" stroke="none" paint-order="stroke fill markers" d="" fill-opacity="0.4"/><g><path fill="none" stroke="#c74440" class="dcg-svg-curve" paint-order="fill stroke markers" d=" M 0 202.02020202020202 L 0 202.02020202020202 L 43.5546875 202.59928440327317 L 73.53515625 203.24406979574283 L 95.01953125 203.95373199723915 L 110.83984375 204.7240087982966 L 122.8515625 205.55836350389077 L 132.12890625 206.4539479238734 L 139.35546875 207.4007305716915 L 145.21484375 208.42390638891794 L 149.90234375 209.49819813190098 L 153.80859375 210.6576327456752 L 157.03125 211.88366165324692 L 159.765625 213.20453304889102 L 162.109375 214.63383012452192 L 164.16015625 216.20805908958192 L 165.91796875 217.9005824842007 L 167.578125 219.915830123068 L 169.04296875 222.1779948607897 L 170.3125 224.670318523027 L 171.38671875 227.33405669754174 L 172.36328125 230.3877002964403 L 173.2421875 233.8727357893771 L 174.0234375 237.8140947684653 L 174.8046875 242.9214782851684 L 175.48828125 248.82220310039528 L 176.07421875 255.49840835838592 L 176.66015625 264.49773223806096 L 177.1484375 274.8042606860554 L 177.63671875 289.3491687908889 L 178.02734375 306.1511455938521 L 178.41796875 331.22952293141736 L 178.80859375 372.72423415650337 L 178.98924754917476 406.5" stroke-linecap="round" stroke-linejoin="round" stroke-miterlimit="10" stroke-width="3.5" stroke-dasharray=""/></g><g><path fill="none" stroke="#c74440" class="dcg-svg-curve" paint-order="fill stroke markers" d=" M 180.96633946549932 -6.5 L 180.96633946549932 -6.5 L 181.0546875 15.505776589026311 L 181.4453125 66.80905829842001 L 181.8359375 96.30436202878982 L 182.32421875 119.25802980601262 L 182.8125 134.2670401493931 L 183.3984375 146.61367288607565 L 184.08203125 156.57302829965317 L 184.765625 163.70906182981352 L 185.546875 169.7486506339625 L 186.328125 174.334736902409 L 187.20703125 178.3481908672571 L 188.18359375 181.8469242591396 L 189.2578125 184.90234238871108 L 190.4296875 187.58751032807405 L 191.796875 190.1377703582763 L 193.45703125 192.67283315765135 L 195.60546875 195.38253882204637 L 198.4375 198.42790469172195 L 204.78515625 205.07571182468078 L 206.8359375 207.7401854707389 L 208.49609375 210.3668931554161 L 209.86328125 213.03306277731363 L 211.03515625 215.8650635976368 L 212.109375 219.11782419117824 L 212.98828125 222.4609178512116 L 213.8671875 226.70604397622668 L 214.6484375 231.59999670833366 L 215.33203125 237.1846023254254 L 216.015625 244.64293309514696 L 216.6015625 253.38632711392435 L 217.08984375 263.33252047174244 L 217.578125 277.258399839045 L 217.96875 293.1940487496043 L 218.359375 316.69091261759286 L 218.75 354.8387096774194 L 219.04296875 403.8570305560944 L 219.05136368895916 406.5" stroke-linecap="round" stroke-linejoin="round" stroke-miterlimit="10" stroke-width="3.5" stroke-dasharray=""/></g><g><path fill="none" stroke="#c74440" class="dcg-svg-curve" paint-order="fill stroke markers" d=" M 220.993163291536 -6.5 L 220.993163291536 -6.5 L 220.99609375 -5.662827303384432 L 221.38671875 50.94217974197238 L 221.77734375 82.68524369506137 L 222.265625 106.9921601121805 L 222.75390625 122.69795139462626 L 223.33984375 135.50226776193904 L 223.92578125 144.50159164161408 L 224.609375 152.126806969634 L 225.390625 158.49235451121257 L 226.171875 163.26329542290475 L 227.05078125 167.38362258796366 L 228.02734375 170.92086372222207 L 229.1015625 173.95256093771874 L 230.2734375 176.554075413391 L 231.54296875 178.79317718281484 L 233.10546875 180.97310475655937 L 234.86328125 182.89859560666883 L 236.81640625 184.5867424936588 L 238.96484375 186.06231935128326 L 241.40625 187.3999368510986 L 244.23828125 188.63518151609802 L 247.55859375 189.7823424712574 L 251.46484375 190.84512071880786 L 256.15234375 191.84154077379827 L 261.9140625 192.7867485659405 L 268.9453125 193.66523418017223 L 277.734375 194.48949635961054 L 288.8671875 195.2587585054262 L 303.125 195.96961948017253 L 321.6796875 196.62140384136097 L 346.38671875 197.21553623016786 L 380.17578125 197.75224991838093 L 400 197.97979797979798" stroke-linecap="round" stroke-linejoin="round" stroke-miterlimit="10" stroke-width="3.5" stroke-dasharray=""/></g></g></g><g id="labels-3adb9cee"/><g id="labels-3adb9cee"/></g></svg>