<?xml version="1.0" encoding="UTF-8"?>
<svg id="Layer_1" data-name="Layer 1" xmlns="http://www.w3.org/2000/svg" viewBox="0 0 175 175">
  <defs>
    <style>
      .cls-1 {
        stroke: red;
      }

      .cls-1, .cls-2 {
        fill: none;
        stroke-linecap: round;
        stroke-linejoin: round;
        stroke-width: 1.19551px;
      }

      .cls-3 {
        fill: #fff;
      }

      .cls-2 {
        stroke: #000;
      }
    </style>
  </defs>
  <rect class="cls-3" width="175" height="175"/>
  <g>
    <line class="cls-2" x1="83.21721" y1="91.92829" x2="120.16127" y2="110.40064"/>
    <line class="cls-1" x1="83.21721" y1="93.08964" x2="119.43549" y2="111.19908"/>
    <path class="cls-2" d="M124.52206,91.92829c0-10.95522-4.35259-21.46041-12.09851-29.20632-7.74592-7.74594-18.25112-12.09853-29.20634-12.09853s-21.46041,4.35259-29.20633,12.09853c-7.74593,7.74591-12.09852,18.25111-12.09852,29.20632s4.35259,21.46041,12.09852,29.20634c7.74592,7.74592,18.25111,12.09851,29.20633,12.09851s21.46041-4.35259,29.20634-12.09851,12.09851-18.25112,12.09851-29.20634Z"/>
    <line class="cls-2" x1="80.46355" y1="91.92829" x2="85.97087" y2="91.92829"/>
    <line class="cls-2" x1="83.21721" y1="89.17463" x2="83.21721" y2="94.68194"/>
    <path d="M75.33838,95.82227c0,.2793.06787.50391.20312.67383.13574.16992.31934.30371.55176.40039s.4917.17676.77832.23828c.28613.0625.58252.12207.88818.17969.30566.05859.60205.13379.88867.22656.28613.09277.54541.2207.77783.38379.23242.16211.41602.375.55176.63867.13525.2627.20312.5957.20312.99805,0,.50391-.12598.93359-.37744,1.28906-.25146.35645-.59619.62598-1.03369.80762s-.93896.27246-1.50391.27246-1.06641-.08691-1.50391-.26074-.80127-.4375-1.0918-.79004c-.29004-.35156-.49316-.79102-.60938-1.31836h1.11475c.13184.47266.37354.83301.72607,1.08008.35205.24805.81055.37207,1.37598.37207.59619,0,1.04688-.12012,1.35303-.36035.30566-.23926.4585-.55664.4585-.95215,0-.30176-.06787-.5459-.20312-.73145s-.31934-.33105-.55176-.43555c-.23193-.10449-.4917-.18945-.77783-.25586-.28662-.06543-.58252-.12891-.88867-.19141-.30566-.06152-.60205-.13672-.88818-.22656-.28662-.08887-.5459-.21094-.77832-.36523-.23193-.15527-.41602-.36035-.55127-.61621-.13574-.25488-.20361-.58398-.20361-.98633,0-.37988.10449-.73242.31396-1.05762.20898-.3252.5127-.58594.91162-.7832.39844-.19824.88818-.29688,1.46875-.29688.51123,0,.97754.08594,1.39941.25586.42188.1709.77637.43164,1.06299.78418.28613.35254.47607.81055.56885,1.37598h-1.12646c-.12402-.52637-.35059-.90723-.6792-1.14355-.32959-.23633-.74561-.35449-1.24854-.35449-.49561,0-.88281.10449-1.16162.31348s-.41797.4873-.41797.83594Z"/>
    <g>
      <path d="M94.16797,93.75488v-6.1665h1.02246v6.1665h-1.02246ZM95.19043,90.30566h-.46484c.04688-.66504.17578-1.20898.38867-1.63184.21289-.42188.48438-.7334.81348-.93457s.69043-.30225,1.08594-.30225c.12305,0,.23828.01367.34277.04102.10449.02686.18359.06348.2373.11035v.91748c-.08496-.03125-.18164-.05225-.29004-.06396s-.22461-.01758-.34863-.01758c-.30957,0-.57422.04443-.79492.13428-.2207.08887-.40332.21875-.5459.38867-.14355.16992-.25.37012-.31934.59766-.07031.22852-.10449.48242-.10449.76074Z"/>
      <path d="M98.10645,93.75488v-4.31934h.52832v4.31934h-.52832ZM98.54492,92.02734l1.46387-1.45801h.64844l-1.48828,1.45801h-.62402ZM98.54492,92.02734l.61816-.08398,1.57812,1.81152h-.67285l-1.52344-1.72754Z"/>
      <path d="M102.94922,93.75488h-.55273v-3.12012h-.7373v-.41992h.4375c.15625,0,.25977-.01855.3125-.05664.05176-.03809.07715-.10059.07715-.18945v-.07129h.46289v3.85742ZM101.65918,93.75488v-.41992h2.02734v.41992h-2.02734Z"/>
      <path d="M105.36719,89.30762v-.81348h4.51758v.81348h-4.51758ZM105.36719,91.62988v-.8125h4.51758v.8125h-4.51758Z"/>
      <path d="M111.78906,93.75488v-6.1665h1.02148v6.1665h-1.02148ZM112.81055,90.30566h-.46387c.0459-.66504.17578-1.20898.38867-1.63184.21289-.42188.4834-.7334.8125-.93457s.69141-.30225,1.08594-.30225c.12402,0,.23828.01367.34277.04102.10449.02686.18359.06348.23828.11035v.91748c-.08496-.03125-.18262-.05225-.29004-.06396-.10938-.01172-.22461-.01758-.34863-.01758-.30957,0-.5752.04443-.7959.13428-.2207.08887-.40234.21875-.5459.38867s-.24902.37012-.31934.59766c-.06934.22852-.10449.48242-.10449.76074Z"/>
      <path d="M115.72754,93.75488v-4.31934h.52832v4.31934h-.52832ZM116.16504,92.02734l1.46387-1.45801h.64844l-1.48828,1.45801h-.62402ZM116.16504,92.02734l.61816-.08398,1.57812,1.81152h-.67188l-1.52441-1.72754Z"/>
      <path d="M121.49902,90.97754c0,.1875-.03906.35059-.11621.48828-.07812.13867-.18164.26074-.30957.36621-.12793.10645-.26758.20312-.41992.29102s-.30469.17676-.45898.2666c-.1543.09082-.29492.18848-.42285.29492-.12793.10547-.23145.22949-.30859.37109-.07812.14258-.11719.30957-.11719.50098l-.52246.05469c0-.24805.03906-.46094.11719-.63965.07812-.17773.17969-.33008.30566-.45898.12598-.12793.26562-.23926.41699-.33594.15234-.0957.30469-.18457.45605-.2666.15234-.08203.29102-.16602.41699-.25195s.22852-.18262.30664-.29102.11621-.23633.11621-.38379c0-.21973-.0625-.39258-.18848-.5166s-.30957-.18555-.54883-.18555c-.26465,0-.46387.06348-.60059.19141-.13574.12891-.22168.30273-.25781.52246h-.5459c.03613-.24414.11328-.45312.23145-.62695.11719-.17383.27539-.30762.47363-.40234.19824-.09375.43262-.14062.70508-.14062.28027,0,.51367.05078.70215.15332.1875.10156.33008.23828.42578.41016.0957.17285.14355.36816.14355.58887ZM118.82324,93.75488v-.14355l.41406-.27637h2.30371v.41992h-2.71777Z"/>
    </g>
    <g>
      <path d="M108.12891,51.92822v-8.36182h1.02148v8.36182h-1.02148ZM108.97656,48.5835l2.83301-2.82178h1.25488l-2.87988,2.82178h-1.20801ZM108.97656,48.5835l1.19629-.1626,3.05371,3.50732h-1.30078l-2.94922-3.34473Z"/>
      <path d="M115.51953,51.92822h-.55273v-3.12012h-.7373v-.41992h.4375c.15625,0,.25977-.01904.3125-.05713.05176-.0376.07715-.10059.07715-.18896v-.07178h.46289v3.85791ZM114.22949,51.92822v-.41992h2.02734v.41992h-2.02734Z"/>
      <path d="M117.93652,47.48047v-.81299h4.51758v.81299h-4.51758ZM117.93652,49.80273v-.8125h4.51758v.8125h-4.51758Z"/>
      <path d="M124.35938,51.92822v-8.36182h1.02148v8.36182h-1.02148ZM125.20703,48.5835l2.83301-2.82178h1.25488l-2.87988,2.82178h-1.20801ZM125.20703,48.5835l1.19629-.1626,3.05371,3.50732h-1.30078l-2.94922-3.34473Z"/>
      <path d="M132.67871,49.15039c0,.18799-.03906.35107-.11621.48877-.07812.13818-.18164.26025-.30957.36621s-.26758.20312-.41992.29102-.30469.17676-.45898.2666c-.1543.09033-.29492.18848-.42285.29443s-.23145.22998-.30859.37158c-.07812.14209-.11719.30908-.11719.50098l-.52246.0542c0-.24805.03906-.46094.11719-.63916.07812-.17773.17969-.33057.30566-.45898.12598-.12793.26562-.23975.41699-.33594.15234-.0957.30469-.18506.45605-.26709.15234-.08154.29102-.16553.41699-.25195.12598-.08594.22852-.18262.30664-.29102.07812-.10791.11621-.23584.11621-.38379,0-.21973-.0625-.39209-.18848-.51611s-.30957-.18604-.54883-.18604c-.26465,0-.46387.06396-.60059.19189-.13574.12842-.22168.30225-.25781.52246h-.5459c.03613-.24414.11328-.45312.23145-.62744.11719-.17383.27539-.30762.47363-.40186.19824-.09375.43262-.14111.70508-.14111.28027,0,.51367.05127.70215.15332.1875.10205.33008.23877.42578.41064.0957.17236.14355.36816.14355.58838ZM130.00293,51.92822v-.14404l.41406-.27588h2.30371v.41992h-2.71777Z"/>
    </g>
  </g>
</svg>